<svg width="120" height="120" viewBox="0 0 120 120" fill="none" xmlns="http://www.w3.org/2000/svg">
  <rect width="120" height="120" rx="24" fill="url(#gradient)"/>
  <path d="M30 40C30 35.5817 33.5817 32 38 32H82C86.4183 32 90 35.5817 90 40V80C90 84.4183 86.4183 88 82 88H38C33.5817 88 30 84.4183 30 80V40Z" fill="white" fill-opacity="0.1"/>
  <path d="M40 50C40 47.7909 41.7909 46 44 46H76C78.2091 46 80 47.7909 80 50V70C80 72.2091 78.2091 74 76 74H44C41.7909 74 40 72.2091 40 70V50Z" fill="white"/>
  <circle cx="50" cy="60" r="3" fill="url(#gradient)"/>
  <circle cx="60" cy="60" r="3" fill="url(#gradient)"/>
  <circle cx="70" cy="60" r="3" fill="url(#gradient)"/>
  <defs>
    <linearGradient id="gradient" x1="0" y1="0" x2="120" y2="120" gradientUnits="userSpaceOnUse">
      <stop stop-color="#3B82F6"/>
      <stop offset="1" stop-color="#8B5CF6"/>
    </linearGradient>
  </defs>
</svg>