<svg width="32" height="32" viewBox="0 0 32 32" fill="none" xmlns="http://www.w3.org/2000/svg">
  <rect width="32" height="32" rx="8" fill="url(#gradient)"/>
  <path d="M8 12C8 10.8954 8.89543 10 10 10H22C23.1046 10 24 10.8954 24 12V20C24 21.1046 23.1046 22 22 22H10C8.89543 22 8 21.1046 8 20V12Z" fill="white" fill-opacity="0.1"/>
  <path d="M12 15C12 14.4477 12.4477 14 13 14H19C19.5523 14 20 14.4477 20 15V17C20 17.5523 19.5523 18 19 18H13C12.4477 18 12 17.5523 12 17V15Z" fill="white"/>
  <circle cx="14" cy="16" r="1" fill="url(#gradient)"/>
  <circle cx="16" cy="16" r="1" fill="url(#gradient)"/>
  <circle cx="18" cy="16" r="1" fill="url(#gradient)"/>
  <defs>
    <linearGradient id="gradient" x1="0" y1="0" x2="32" y2="32" gradientUnits="userSpaceOnUse">
      <stop stop-color="#3B82F6"/>
      <stop offset="1" stop-color="#8B5CF6"/>
    </linearGradient>
  </defs>
</svg>